<svg width="40" height="40" viewBox="0 0 40 40" fill="none" xmlns="http://www.w3.org/2000/svg">
<g clip-path="url(#clip0_363_1064)">
<rect width="40" height="40" rx="4" fill="#5869FC"/>
<mask id="mask0_363_1064" style="mask-type:alpha" maskUnits="userSpaceOnUse" x="6" y="3" width="28" height="34">
<path d="M6.35938 17.2731C6.35938 9.74192 12.4646 3.63672 19.9957 3.63672V3.63672C27.5269 3.63672 33.6321 9.74193 33.6321 17.2731V22.8353C33.6321 30.3665 27.5269 36.4717 19.9957 36.4717V36.4717C12.4646 36.4717 6.35938 30.3664 6.35938 22.8353V17.2731Z" fill="#5869FC"/>
</mask>
<g mask="url(#mask0_363_1064)">
<path d="M10.4775 32.3621C15.7326 37.6172 24.2439 37.6262 29.4879 32.3822C34.1102 27.7598 34.6512 20.599 31.1155 15.3672L30.3864 16.0963L29.9392 16.5434L27.4177 19.0649C27.1182 19.3645 27.0461 19.8184 27.1925 20.2159C28.1975 22.9449 27.607 26.1259 25.4193 28.3136C22.4176 31.3154 17.5456 31.3102 14.5375 28.3021C11.5294 25.294 11.4971 20.4493 14.4989 17.4475L17.2789 20.2276C17.6292 20.5779 18.1973 20.5779 18.5476 20.2276L19.174 19.6012L19.5529 19.2223C19.9032 18.872 19.9032 18.3039 19.5529 17.9536L16.7527 15.1534C17.5037 14.4025 19.9612 11.9852 19.9612 11.9852L24.3708 16.3949C24.7613 16.7854 25.3945 16.7854 25.785 16.3949L27.7878 14.392L28.7321 13.4478L29.1379 13.042L19.9923 3.81604C17.8641 5.94337 13.0897 10.7195 10.4574 13.3518C5.21343 18.5958 5.22242 27.107 10.4775 32.3621Z" fill="white"/>
</g>
</g>
<defs>
<clipPath id="clip0_363_1064">
<rect width="40" height="40" fill="white"/>
</clipPath>
</defs>
</svg>
