<svg width="750" height="240" viewBox="0 0 750 240" fill="none" xmlns="http://www.w3.org/2000/svg">
<rect x="1" y="10" width="220" height="220" rx="24" fill="#5869FC"/>
<mask id="mask0_361_1016" style="mask-type:alpha" maskUnits="userSpaceOnUse" x="36" y="30" width="150" height="181">
<path d="M36 54C36 40.7452 46.7452 30 60 30H162C175.255 30 186 40.7452 186 54V186.592C186 199.847 175.255 210.592 162 210.592H60C46.7452 210.592 36 199.847 36 186.592V54Z" fill="#5869FC"/>
</mask>
<g mask="url(#mask0_361_1016)">
<path d="M58.6694 187.99C87.5725 216.893 134.384 216.943 163.226 188.101C188.649 162.678 191.625 123.293 172.178 94.5182L168.168 98.5282L165.709 100.988L151.091 115.606C149.893 116.804 149.597 118.621 150.223 120.196C156.269 135.42 153.147 153.426 140.849 165.724C124.34 182.233 97.5439 182.205 80.9993 165.66C64.4548 149.116 64.277 122.47 80.7866 105.96L96.0769 121.25L96.7375 121.911C98.2996 123.473 100.832 123.473 102.394 121.911L106.5 117.805L109.244 115.061C110.806 113.499 110.806 110.966 109.244 109.404L108.584 108.743L93.183 93.3426C97.3133 89.2123 110.829 75.9174 110.829 75.9174L136.143 101.231C137.705 102.793 140.238 102.793 141.8 101.231L153.876 89.155L159.069 83.9618L161.301 81.7297L111.001 30.987C99.2956 42.6873 73.0362 68.9563 58.5589 83.4335C29.7168 112.276 29.7663 159.087 58.6694 187.99Z" fill="white"/>
</g>
<path d="M264 192.779V49.6433H299.772V192.779H264ZM292.378 192.779V162.295H369.118V192.779H292.378ZM292.378 134.637V104.96H361.923V134.637H292.378ZM292.378 80.1279V49.6433H367.918V80.1279H292.378Z" fill="#181C39"/>
<path d="M386.894 192.779V94.0579H421.667V192.779H386.894ZM421.667 139.078L406.079 125.754C409.943 114.583 415.072 106.171 421.467 100.518C427.862 94.8654 436.189 92.039 446.447 92.039C451.111 92.039 455.107 92.6447 458.438 93.856C461.902 95.0673 464.833 96.9516 467.231 99.5088L447.047 126.763C445.981 125.552 444.449 124.61 442.451 123.937C440.585 123.129 438.454 122.725 436.056 122.725C431.526 122.725 427.995 124.139 425.464 126.965C422.933 129.657 421.667 133.694 421.667 139.078Z" fill="#181C39"/>
<path d="M473.735 192.779V94.0579H508.708V192.779H473.735ZM491.122 82.5505C485.926 82.5505 481.596 80.8008 478.132 77.3015C474.668 73.6676 472.936 69.1588 472.936 63.7752C472.936 58.5262 474.668 54.0848 478.132 50.4509C481.596 46.817 485.926 45 491.122 45C496.584 45 500.981 46.817 504.311 50.4509C507.775 54.0848 509.507 58.5262 509.507 63.7752C509.507 69.1588 507.775 73.6676 504.311 77.3015C500.981 80.8008 496.584 82.5505 491.122 82.5505Z" fill="#181C39"/>
<path d="M592.321 192.779V137.059C592.321 132.483 590.988 128.917 588.324 126.359C585.659 123.668 582.262 122.322 578.132 122.322C575.334 122.322 572.803 122.927 570.538 124.139C568.406 125.35 566.741 127.032 565.542 129.186C564.343 131.339 563.743 133.964 563.743 137.059L550.154 130.599C550.154 122.658 551.886 115.861 555.35 110.209C558.814 104.421 563.543 99.9798 569.538 96.8843C575.667 93.6541 582.595 92.039 590.322 92.039C597.383 92.039 603.645 93.7214 609.107 97.0861C614.703 100.316 619.1 104.69 622.297 110.209C625.495 115.727 627.093 121.985 627.093 128.984V192.779H592.321ZM528.97 192.779V94.0579H563.743V192.779H528.97Z" fill="#181C39"/>
<path d="M693.643 195C683.118 195 673.725 192.779 665.465 188.338C657.338 183.762 650.876 177.571 646.08 169.764C641.284 161.824 638.886 152.941 638.886 143.116C638.886 133.291 641.217 124.542 645.88 116.871C650.676 109.065 657.205 102.941 665.465 98.4993C673.725 93.9233 683.051 91.6353 693.443 91.6353C703.835 91.6353 713.094 93.9233 721.221 98.4993C729.481 102.941 736.009 109.065 740.806 116.871C745.602 124.542 748 133.291 748 143.116C748 152.941 745.602 161.824 740.806 169.764C736.143 177.571 729.681 183.762 721.421 188.338C713.294 192.779 704.035 195 693.643 195ZM693.443 163.708C697.306 163.708 700.637 162.9 703.435 161.285C706.366 159.536 708.631 157.113 710.23 154.018C711.828 150.922 712.628 147.355 712.628 143.318C712.628 139.28 711.762 135.781 710.03 132.82C708.431 129.724 706.233 127.369 703.435 125.754C700.637 124.004 697.306 123.129 693.443 123.129C689.712 123.129 686.382 124.004 683.451 125.754C680.52 127.503 678.255 129.926 676.656 133.022C675.057 135.983 674.258 139.482 674.258 143.52C674.258 147.423 675.057 150.922 676.656 154.018C678.255 157.113 680.52 159.536 683.451 161.285C686.382 162.9 689.712 163.708 693.443 163.708Z" fill="#181C39"/>
</svg>
